# xmcd CD database file
#
# Track frame offsets:
#	150
#	15758
#	16358
#	25943
#	34968
#	42388
#	49530
#	57893
#	70328
#	77368
#	78735
#	83985
#	97175
#	105165
#	116253
#	120933
#	131860
#	140308
#	147313
#	156400
#	157393
#	165065
#	177800
#	185290
#	192728
#	200473
#	207350
#	223075
#
# Disc length: 3204 seconds
#
# Revision: 4
# Processed by: cddbd v1.5PL3 Copyright (c) Steve Scherf et al.
# Submitted via: CDex 1.50
#
DISCID=7f0c821c
DTITLE=増田俊郎 - だぁ！だぁ！だぁ！ オリジナル・サウンドトラック２
DYEAR=2001
DGENRE=Anime
TTITLE0=HAPPY FLOWER
TTITLE1=サブタイトル
TTITLE2=だぁ！だぁ！だぁ！のテーマ〜2001 SPRING VERSION
TTITLE3=ルゥちゃまはいたずら盛り！
TTITLE4=困ったなぁ〜。
TTITLE5=トレードマークは赤い薔薇
TTITLE6=あぁ、憧れの未夢っち
TTITLE7=んもぅ、いいかげんにしてよ！
TTITLE8=だぁ！だぁ！クリスマス
TTITLE9=ピキピキ・エンジェルのテーマ
TTITLE10=頭上のみかんは何のため？！
TTITLE11=宇宙人がやってきた！
TTITLE12=異次元空間出現！
TTITLE13=ワァ〜ッ、時空の歪みに吸い込まれるぅ〜！
TTITLE14=な〜んか怪しい奴らが出てきたゾ
TTITLE15=あっ！わるわる団だ！
TTITLE16=ひょっとして何か事件が・・・。
TTITLE17=さあ大変！ルゥくんがさらわれた！？
TTITLE18=上を下への大騒ぎ！
TTITLE19=アイキャッチ
TTITLE20=奈落のエレジー
TTITLE21=やっぱり”ともだち”ってイイよね。
TTITLE22=のどかなヒトトキ
TTITLE23=クリスのテーマ〜2001 SPRING VERSION
TTITLE24=ルゥちゃまの、フワフワ☆空中散歩
TTITLE25=ファンタジック・ホラー
TTITLE26=きっと、いつまでも・・・。
TTITLE27=ゆっくり
EXTD=YEAR: 2001
EXTT0=
EXTT1=
EXTT2=
EXTT3=
EXTT4=
EXTT5=
EXTT6=
EXTT7=
EXTT8=
EXTT9=
EXTT10=
EXTT11=
EXTT12=
EXTT13=
EXTT14=
EXTT15=
EXTT16=
EXTT17=
EXTT18=
EXTT19=
EXTT20=
EXTT21=
EXTT22=
EXTT23=
EXTT24=
EXTT25=
EXTT26=
EXTT27=
PLAYORDER=
